<?xml version="1.0" encoding="utf-8"?>
<!-- Generator: Adobe Illustrator 19.0.0, SVG Export Plug-In . SVG Version: 6.00 Build 0)  -->
<svg version="1.1" id="Layer_1" xmlns="http://www.w3.org/2000/svg" xmlns:xlink="http://www.w3.org/1999/xlink" x="0px" y="0px"
	 viewBox="0 0 500 500" style="enable-background:new 0 0 500 500;" xml:space="preserve">
<style type="text/css">
	.st0{fill:#F08CA2;}
	.st1{fill:#012E86;}
	.st2{fill:#FFFFFF;}
	.st3{fill:#FFED00;}
	.st4{fill:#E62B49;}
	.st5{fill:#EE82A6;}
	.st6{fill:#161413;}
</style>
<g id="XMLID_1_">
	<rect id="XMLID_2_" x="67.5" y="219.7" class="st0" width="68.7" height="60.6"/>
	<path id="XMLID_3_" class="st1" d="M112.1,257c-1.4,0.2-4.2,0.5-5.5,0.6c-1.2,0.1-2.5,0.2-3.9,0.3c-1.2,0.1-2.5,0-3.8,0
		c-1.3,0-2.6,0-3.9-0.2c-2.7-0.3-3.2-0.7-4-0.8c-1.5-0.2-2.6-0.5-3.9-0.7c-1-0.2-2.1-0.5-2.7-0.5c-0.1-0.1-0.3-0.5-0.3-0.6
		c-0.7-1.6-0.7-1.4-1.4-3.7c-0.3-1.1-0.8-3.5-1-5.1c-0.2-1.2-0.4-1.6-0.5-1.9c-0.4-1.2-0.2-1.9-0.3-3.2c-0.1-1.3-0.1-4.4-0.1-5.7
		c0.1-2.1,0.2-2.3,0.5-3.6c0.3-1.3,0.9-2.6,1.5-3.7c0.5-1,0.7-1.9,1.4-2.8c0.8-1,1-1.5,1.4-1.9c0,0,0.3-0.1,0.4-0.1
		c1-0.3,1.9-0.4,2.4-0.6c0.1,0,0.6,0,0.7,0c0.2,0,1.6,0,3.7,0.1c1.1,0,2.4,0.1,3.7,0.2c1.2,0,2.6,0,4,0.1c1.3,0,2.6,0,3.8,0
		c1.2,0,2.4,0.1,3.5,0.1c1.2,0,2.4,0,3.6-0.1c1.3,0,2.4-0.1,3.4-0.1c1.5-0.1,2.7,0,3.4-0.2c1.2-0.2,2.1-0.4,2.9-0.4
		c0.2,0.1,0.3,0.1,0.5,0.2c0.7,0.3,1.6,1,1.6,1c0,0.4-0.2,3.4,0.1,5.4c0.1,1.2,0.3,2.5,0.5,3.8c0.2,1.3,0.3,2.3,0.4,3.5
		c0.2,1.2,0.6,3,0.8,4c0.3,1.8,0.4,0.8,0.6,2.4c0.3,2,0.1,1.8,0.4,4c0.1,1.3-0.1,4-0.3,5.3c-0.2,1.3-0.8,2.4-1.2,2.5
		c-0.9,0.4-3.8,0.8-3.2,0.7c-1.5,0.2-1.4,0.1-2.2,0.2c-2.3,0.5-2.8,0.4-4.4,0.5c-1.5,0.1-0.3,0.3-2,0.5
		C112.4,256.9,112.3,257,112.1,257"/>
	<path id="XMLID_4_" class="st2" d="M88,225.7c0.5-1.1,1-1,2-1.1c0.6,0,1.4,0.1,2.4,0.3c0.7,0.1,0.7-0.1,1.6,0.1
		c0.7,0.2,0.8,0.1,1.8,0.3c0.8,0.1,3.3,0.7,4.2,0.8c0.9,0.1,1.8,0.5,2.7,0.6c0.9,0.1,1.8,0.1,2.7,0.2c0.9,0,1.8,0.1,2.6,0.1
		c0.9,0,1.8-0.2,2.7-0.2c0.9,0,1.8-0.2,2.5-0.2c1-0.1,1.9-0.2,2.4-0.4c1.1-0.3,1.9-0.3,2.7-0.1c1,0.2,1.6,0.6,2,1.4
		c0.3,0.7,0.1,1.3,0.3,2.5c0.1,0.6-0.2,1.5-0.2,2.7c0,0.8,0,1.7,0,2.7c0,0.9,0.1,1.8,0.2,2.7c0,0.9,0,1.8,0,2.7
		c0,0.9,0.1,1.8,0.1,2.7c0,1,0.1,1.8,0.1,2.6c0.1,1.5,0.3,1.2,0.1,2.6c-0.1,1.3,0.3,1.5-0.9,2.5c-0.5,0.4-1.3,0.9-2.4,1
		c-0.3,0-1.2,0.3-2.4,0.6c-0.7,0.2-1.5,0.4-2.4,0.6c-0.7,0.2-1.6,0.3-2.5,0.5c-0.8,0.2-1.6,0.2-2.4,0.4c-0.8,0.1-1.6,0.2-2.5,0.3
		c-0.8,0.1-1.6,0-2.4,0.1c-0.8,0.1-1.5,0.1-2.3,0.2c-0.6,0,0,0.2-0.3,0.3c-0.8,0.3-1,0.2-2.5,0.1c-0.7,0-1.5,0-2.4-0.1
		c-0.8,0-1.7-0.1-2.5-0.2c-0.8-0.1-1.6-0.3-2.4-0.5c-0.9-0.2-1.8-0.2-2.5-0.4c-0.9-0.4-1.6-0.7-1.9-1.3c-0.2-0.4-0.3-1.5-0.4-2.6
		c-0.1-0.7,0-1.6,0-2.5c0-0.8-0.1-1.6-0.1-2.5c0-0.8,0-1.7,0.1-2.5c0-0.8,0.1-1.6,0.1-2.5c0.1-0.8,0.3-1.7,0.4-2.5
		c0.1-0.8,0.2-1.6,0.3-2.4c0.1-0.8,0.1-1.6,0.2-2.4c0.1-0.8,0.3-1.6,0.4-2.4c0.1-0.9,0-1.8,0.2-2.4C87.4,226.5,87.8,225.8,88,225.7z
		"/>
	<path id="XMLID_5_" class="st1" d="M130.1,272.8c-0.5,0.2-2.5,0.7-4.1,0.6c-0.9,0-2.2,0.1-3.7,0.2c-1.1,0-2.3-0.2-3.7-0.1
		c-1.1,0.1-2.3,0-3.6,0.1c-1.3,0.1-2.6,0.2-3.9,0.3c-1.2,0.1-1.9-0.1-3.2,0.1c-1.3,0.1-2.3-0.3-3.6-0.2c-1.2,0.1-3.2,0.1-4.4,0.3
		c-1.2,0.1-2.6,0.6-3.8,0.8c-1.2,0.1-2.2,0-3.4,0.2c-1.2,0.2-2.6,0.6-3.8,0.7c-1.2,0.2-2.4,0.4-3.5,0.6c-1.2,0.2-2.3,0.3-3.3,0.6
		c-0.9,0.2-1.7,0.5-2.5,0.8c-1.7,0.5-3.1,0.8-4.2,1c-2.3,0.3-3.3-0.1-3.9-1.1c-0.6-0.8-0.7-2.1-0.9-3.3c-0.2-1.4-0.1-0.7-0.4-2
		c-0.3-1.9-0.7-3.1,0.5-4.2c0.6-0.6,1.6-1.3,2.8-1.9c1.7-0.9,1-0.8,3.5-1.8c1-0.4,2.2-0.8,3.6-1.3c1.1-0.4,2.4-0.6,3.7-1
		c1.1-0.3,2.4-0.6,3.7-0.9c1.2-0.3,2.4-0.6,3.8-0.9c1.2-0.2,2.4-0.5,3.8-0.7c1.3-0.2,2.6-0.4,4-0.5c1.2-0.2,2.5-0.3,3.9-0.4
		c1.2-0.1,2.4-0.4,3.7-0.5c1.2-0.1,3,0,4.3-0.1c1.2-0.1,1.9-0.3,3.2-0.4c1.2-0.1,2.4-0.1,3.7-0.1c1.2,0,2.5-0.1,3.8-0.1
		c1.1,0,2.2-0.1,3.3-0.1c1.8,0,3.6,0.1,4.5,0.7c1.4,0.9,1.2,1.4,1.3,3.1c0.1,2-0.1,1,0.2,2.9c0.3,2.1,0.4,3.9,0.5,5.7
		C131.7,271.1,131.1,271.9,130.1,272.8"/>
	<path id="XMLID_6_" class="st2" d="M80.2,269.7c0.6,0,1.2-0.5,1.2-1.2c0-0.7-0.5-1.3-1.2-1.3c-0.6,0-1.1,0.6-1.1,1.3
		C79.1,269.2,79.5,269.7,80.2,269.7z"/>
	<path id="XMLID_7_" class="st2" d="M87.2,273.2c0.6,0.1,1.2-0.6,1.2-1.2c0-0.7-0.5-1.1-1.2-1.1c-0.6,0-1.1,0.4-1.1,1.1
		C86,273.6,86.9,273.1,87.2,273.2z"/>
	<path id="XMLID_8_" class="st2" d="M83.2,274c0.6,0,1.2-0.6,1.2-1.3c0-0.6-0.6-1.2-1.2-1.2c-0.6,0-1.1,0.5-1.1,1.2
		C82.1,273.4,82.6,274,83.2,274z"/>
	<path id="XMLID_9_" class="st2" d="M98.6,269c0.7,0,1.2-0.6,1.2-1.3c0-0.6-0.6-1.1-1.2-1.1c-0.6,0-1.4,0.3-1.2,1.1
		C97.7,268.4,98,269,98.6,269z"/>
	<path id="XMLID_10_" class="st2" d="M92,270.4c0.6,0,1.1-0.5,1.1-1.1c0-0.7-0.5-1.1-1.1-1.1c-0.6,0-1,0.4-1,1.1
		C91,270,91.4,270.4,92,270.4z"/>
	<path id="XMLID_11_" class="st2" d="M88.8,269.5c0.6,0.1,1.1-0.5,1.1-1.2c0-0.7-0.5-1.2-1.1-1.2c-0.7,0-1.2,0.5-1.2,1.2
		C87.7,269,87.7,269.3,88.8,269.5z"/>
	<path id="XMLID_12_" class="st2" d="M95.8,265.3c0.6,0,1.2-0.2,1.2-0.8c0-0.7-0.6-1.1-1.3-1.1c-0.7,0-1.2,0.5-1.2,1.1
		C94.5,265.1,95.2,265.3,95.8,265.3z"/>
	<path id="XMLID_13_" class="st2" d="M99.1,263.6c0.6,0,1.2-0.5,1.2-1.2c0-0.6-0.6-1.1-1.2-1.1c-0.7,0-1.2,0.5-1.2,1.1
		C97.9,263.1,98.5,263.6,99.1,263.6z"/>
	<path id="XMLID_14_" class="st3" d="M79.2,274.1c0.5,0,0.8-0.4,0.8-0.9c0-0.5-0.4-1-0.8-1c-0.5,0-0.8,0.4-0.8,1
		C78.4,273.7,78.7,274.1,79.2,274.1z"/>
	<path id="XMLID_15_" class="st3" d="M89.3,264.8c0.5,0,0.9-0.4,0.9-0.9c0-0.5-0.4-0.8-0.9-0.8c-0.5,0-0.8,0.4-0.8,0.8
		C88.5,264.3,88.8,264.8,89.3,264.8z"/>
	<path id="XMLID_16_" class="st3" d="M85.3,268.8c0.5,0,0.8-0.1,0.8-0.6c0-0.5-0.4-0.8-0.9-0.8c-0.5,0-0.9,0.3-0.9,0.8
		C84.4,268.7,84.9,268.8,85.3,268.8z"/>
	<path id="XMLID_17_" class="st3" d="M95.7,270.9c0.5,0,0.9-0.4,0.9-0.8c0-0.5-0.4-0.8-0.9-0.8c-0.5,0-0.9,0.3-0.9,0.8
		C94.8,270.5,95.2,270.9,95.7,270.9z"/>
	<path id="XMLID_18_" class="st3" d="M112.4,271.3c0.9,0,1.7-0.8,1.7-1.7c0-0.9-0.8-1.7-1.7-1.7c-0.9,0-1.5,0.8-1.5,1.7
		C110.9,270.5,111.5,271.3,112.4,271.3z"/>
	<path id="XMLID_19_" class="st3" d="M110.5,265.7c0.9,0,1.7-0.8,1.7-1.7c0-0.9-0.8-1.6-1.7-1.6c-0.9,0-1.6,0.7-1.6,1.6
		C108.9,264.9,109.6,265.7,110.5,265.7z"/>
	<path id="XMLID_20_" class="st3" d="M120.1,266.1c0.9,0,1.6-0.7,1.6-1.6c0-0.9-0.7-1.5-1.6-1.5c-0.9,0-1.5,0.6-1.5,1.5
		C118.6,265.4,119.2,266.1,120.1,266.1z"/>
	<path id="XMLID_21_" class="st3" d="M116.7,269.3c0.9,0,1.6-0.8,1.6-1.8c0-0.9-0.7-1.5-1.6-1.5c-0.9,0-1.8,0.6-1.8,1.5
		C114.9,268.4,115.8,269.3,116.7,269.3z"/>
	<polygon id="XMLID_22_" class="st1" points="96.3,233.8 96.3,231.2 93.7,231.2 93.7,233.8 96.3,233.8 96.3,233.8 93.8,233.8 
		93.8,231.2 96.3,231.2 96.3,233.8 96.3,233.8 	"/>
	<polygon id="XMLID_23_" class="st1" points="115.7,231.7 115.7,229.1 113,229.1 113,231.7 115.6,231.7 115.6,231.7 113.1,231.7 
		113.1,229.2 115.6,229.2 115.6,231.7 115.7,231.7 	"/>
	<polygon id="XMLID_24_" class="st1" points="119.3,243.5 119.3,240.9 116.7,240.9 116.7,243.5 119.3,243.5 119.3,243.5 
		116.7,243.5 116.7,241 119.3,241 119.3,243.5 119.3,243.5 	"/>
	<polygon id="XMLID_25_" class="st1" points="107.8,246.2 107.8,243.6 105.2,243.6 105.2,246.2 107.7,246.2 107.7,246.2 
		105.2,246.2 105.2,243.6 107.7,243.6 107.7,246.2 107.8,246.2 	"/>
	<polygon id="XMLID_26_" class="st1" points="102.1,245.5 102.1,242.9 99.5,242.9 99.5,245.5 102.1,245.5 102.1,245.5 99.5,245.5 
		99.5,243 102.1,243 102.1,245.5 102.1,245.5 	"/>
	<polygon id="XMLID_27_" class="st1" points="90.4,249 91.6,246.7 89.3,245.5 88.1,247.8 90.4,249 90.4,248.9 88.1,247.8 
		89.3,245.5 91.5,246.7 90.4,248.9 90.4,249 	"/>
	<polygon id="XMLID_28_" class="st1" points="94.5,236 91.1,244.1 101,240.7 114.4,233.1 114.4,231.7 114.3,231.7 114.3,233.1 
		101,240.7 91.2,244 94.6,236 94.5,236 	"/>
	<polygon id="XMLID_29_" class="st1" points="95.2,235.3 104.4,236.7 114.1,233.5 118,238.2 112.7,239.2 112.7,239.2 118,238.2 
		114.2,233.5 104.4,236.7 95.2,235.3 95.2,235.3 	"/>
	<polygon id="XMLID_30_" class="st1" points="112.3,238.9 106,242.1 104.6,237.9 104.6,237.9 106,242.1 112.3,238.9 112.3,238.9 	
		"/>
	<polyline id="XMLID_31_" class="st1" points="101.3,241.1 106,241.5 106,241.5 101.3,241.1 	"/>
	<polygon id="XMLID_32_" class="st1" points="106,241.5 95,235.3 95,233.9 95,233.9 95,235.3 106,241.5 106,241.5 	"/>
	<polyline id="XMLID_33_" class="st1" points="114.2,232.9 112.7,237.9 112.7,237.9 114.3,232.9 	"/>
	<polyline id="XMLID_34_" class="st1" points="117.9,239.8 117.8,240.9 117.9,240.9 117.9,239.8 	"/>
	<polyline id="XMLID_35_" class="st1" points="90.8,245.3 90.2,246.2 90.3,246.2 90.8,245.3 	"/>
	<polyline id="XMLID_36_" class="st1" points="100.7,242.2 100.7,243 100.8,243 100.8,242.2 	"/>
	<polyline id="XMLID_37_" class="st1" points="106.3,242.9 106.3,243.7 106.4,243.7 106.4,242.9 	"/>
	<ellipse id="XMLID_38_" class="st4" cx="114.2" cy="233.9" rx="1.2" ry="1.2"/>
	<circle id="XMLID_39_" class="st4" cx="100.8" cy="241.1" r="1.3"/>
	<ellipse id="XMLID_40_" class="st4" cx="104.5" cy="237.1" rx="1.2" ry="1.2"/>
	<path id="XMLID_41_" class="st5" d="M91.3,245.6c0.7,0,1.2-0.5,1.2-1.2c0-0.7-0.5-1.2-1.2-1.2c-0.7,0-1.2,0.5-1.2,1.2
		C90.1,245,90.6,245.6,91.3,245.6z"/>
	<path id="XMLID_42_" class="st5" d="M112.7,240.1c0.7,0,1.2-0.5,1.2-1.2c0-0.7-0.5-1.2-1.2-1.2c-0.7,0-1.2,0.5-1.2,1.2
		C111.5,239.6,112,240.1,112.7,240.1z"/>
	<path id="XMLID_43_" class="st3" d="M95,236.9c0.7,0,1.2-0.5,1.2-1.2c0-0.7-0.5-1.2-1.2-1.2c-0.7,0-1.2,0.5-1.2,1.2
		C93.8,236.3,94.3,236.9,95,236.9z"/>
	<ellipse id="XMLID_44_" class="st3" cx="117.8" cy="238.8" rx="1.2" ry="1.2"/>
	<circle id="XMLID_45_" class="st3" cx="106.4" cy="241.8" r="1.2"/>
	<path id="XMLID_46_" class="st6" d="M180.7,231.7c-1.1-5.5-5.5-8.3-10.8-8.3c-9.2,0-13.1,7.6-13.1,15.7c0,8.9,3.9,16.2,13.1,16.2
		c6.8,0,10.6-4.8,11.1-11.2h5.1c-1,9.7-7,15.5-16.7,15.5c-12,0-17.8-8.9-17.8-20.2c0-11.2,6.4-20.4,18.3-20.4
		c8.1,0,14.7,4.3,15.9,12.6H180.7z"/>
	<path id="XMLID_47_" class="st6" d="M190.5,220h4.6v14.8h0.1c1.5-3.4,5.5-4.8,8.8-4.8c7.3,0,9.6,4.2,9.6,10.3v18.5H209v-19
		c0-3.4-2.2-5.6-5.7-5.6c-5.6,0-8.3,3.7-8.3,8.8v15.9h-4.6V220z"/>
	<path id="XMLID_48_" class="st6" d="M237.7,242c-0.2-4.4-3.5-7.9-8.1-7.9c-4.8,0-7.7,3.6-8,7.9H237.7z M242.2,249.9
		c-1.2,6.2-5.7,9.6-11.9,9.6c-8.9,0-13.1-6.2-13.4-14.8c0-8.4,5.5-14.6,13.1-14.6c9.9,0,12.9,9.3,12.7,16.1h-20.9
		c-0.2,4.9,2.6,9.2,8.7,9.2c3.8,0,6.4-1.8,7.2-5.5H242.2z"/>
	<path id="XMLID_51_" class="st6" d="M265.8,239.7c-0.7-3.5-3.1-5.6-6.9-5.6c-6.6,0-8.7,5.3-8.7,11c0,5.2,2.3,10.3,8.2,10.3
		c4.4,0,7.1-2.6,7.7-6.8h4.7c-1,6.8-5.3,10.9-12.3,10.9c-8.5,0-13.1-6-13.1-14.3c0-8.4,4.3-15,13.2-15c6.3,0,11.4,3,12.1,9.7H265.8z
		"/>
	<polygon id="XMLID_52_" class="st6" points="274.5,220 279.1,220 279.1,243 291.9,230.7 298.1,230.7 287,240.9 298.9,258.8 
		293,258.8 283.5,244.1 279.1,248.1 279.1,258.8 274.5,258.8 	"/>
	<path id="XMLID_53_" class="st6" d="M320.5,238.6h10.1c5.8,0.1,8.4-2.5,8.4-7.1c0-4.6-2.6-7.1-8.4-7.1h-10.1V238.6z M315.4,220
		h16.9c7.7,0,11.8,4.3,11.8,11.5c0,7.2-4.2,11.5-11.8,11.5h-11.8v15.9h-5.1V220z"/>
	<path id="XMLID_56_" class="st6" d="M359.3,255.3c4.8,0,8.7-3.8,8.7-10.6c0-6.8-3.9-10.6-8.7-10.6c-4.8,0-8.7,3.8-8.7,10.6
		C350.6,251.5,354.5,255.3,359.3,255.3z M359.3,230c8.9,0,13.6,6.5,13.6,14.7c0,8.2-4.7,14.7-13.6,14.7c-8.9,0-13.6-6.5-13.6-14.7
		C345.8,236.5,350.5,230,359.3,230z"/>
	<path id="XMLID_59_" class="st6" d="M377.4,230.7h4.6v28.1h-4.6V230.7z M382,225.6h-4.6V220h4.6V225.6z"/>
	<path id="XMLID_62_" class="st6" d="M387.8,230.7h4.3v4.5h0.1c1.9-3.5,5.1-5.1,9.1-5.1c7.3,0,9.6,4.2,9.6,10.3v18.5h-4.6v-19
		c0-3.4-2.2-5.6-5.7-5.6c-5.6,0-8.3,3.7-8.3,8.8v15.9h-4.6V230.7z"/>
	<path id="XMLID_63_" class="st6" d="M422.9,230.7h5.6v4.1h-5.6v17.4c0,2.1,0.6,2.5,3.5,2.5h2.1v4.1h-3.5c-4.8,0-6.6-1-6.6-6.1
		v-17.9h-4.8v-4.1h4.8v-8.4h4.6V230.7z"/>
	<path id="XMLID_64_" class="st6" d="M160.7,272c-0.2-1.8-1.4-2.5-3-2.5c-1.4,0-2.7,0.5-2.7,2.1c0,1.5,2,1.7,3.9,2.2
		c2,0.4,3.9,1.1,3.9,3.5c0,2.6-2.5,3.7-4.8,3.7c-2.7,0-5-1.3-5-4.3h1.5c0,2.1,1.7,3,3.6,3c1.5,0,3.1-0.5,3.1-2.2
		c0-1.7-1.9-2-3.9-2.4c-2-0.4-3.9-1-3.9-3.2c0-2.5,2.2-3.6,4.4-3.6c2.5,0,4.4,1.2,4.5,3.9H160.7z"/>
	<path id="XMLID_65_" class="st6" d="M170.4,279.5c3,0,4.2-2.6,4.2-5c0-2.5-1.2-5.1-4.2-5.1c-3,0-4.2,2.6-4.2,5.1
		C166.2,277,167.4,279.5,170.4,279.5z M170.4,268.1c3.9,0,5.8,3.1,5.8,6.4c0,3.3-2,6.4-5.8,6.4c-3.9,0-5.9-3.1-5.9-6.4
		C164.6,271.2,166.5,268.1,170.4,268.1z"/>
	<polygon id="XMLID_68_" class="st6" points="178.8,268.4 186.8,268.4 186.8,269.7 180.4,269.7 180.4,273.6 186,273.6 186,275 
		180.4,275 180.4,280.6 178.8,280.6 	"/>
	<polygon id="XMLID_69_" class="st6" points="192.2,269.7 188.1,269.7 188.1,268.4 197.8,268.4 197.8,269.7 193.8,269.7 
		193.8,280.6 192.2,280.6 	"/>
	<polygon id="XMLID_70_" class="st6" points="211.4,280.6 209.7,280.6 206.9,270.3 206.9,270.3 204.1,280.6 202.4,280.6 
		199.3,268.4 200.9,268.4 203.3,278.6 203.4,278.6 206.1,268.4 207.9,268.4 210.6,278.6 210.6,278.6 213.1,268.4 214.7,268.4 	"/>
	<path id="XMLID_71_" class="st6" d="M217.9,275.6h4.1l-2-5.7h0L217.9,275.6z M219.2,268.4h1.8l4.8,12.3h-1.8l-1.3-3.7h-5.2
		l-1.4,3.7h-1.7L219.2,268.4z"/>
	<path id="XMLID_74_" class="st6" d="M232.6,274c1.5,0,2.8-0.4,2.8-2.2c0-1.2-0.7-2.1-2.2-2.1h-4v4.3H232.6z M227.5,268.4h5.8
		c2.3,0,3.7,1.3,3.7,3.2c0,1.5-0.6,2.7-2.1,3.1v0c1.4,0.3,1.7,1.3,1.8,2.5c0.1,1.2,0,2.5,0.7,3.4h-1.8c-0.5-0.5-0.2-1.8-0.4-3
		c-0.2-1.2-0.5-2.2-2-2.2h-4v5.2h-1.6V268.4z"/>
	<polygon id="XMLID_77_" class="st6" points="239.9,268.4 248.3,268.4 248.3,269.7 241.5,269.7 241.5,273.6 247.8,273.6 247.8,275 
		241.5,275 241.5,279.3 248.4,279.3 248.4,280.6 239.9,280.6 	"/>
	<polygon id="XMLID_78_" class="st6" points="259.1,269.7 255,269.7 255,268.4 264.8,268.4 264.8,269.7 260.7,269.7 260.7,280.6 
		259.1,280.6 	"/>
	<polygon id="XMLID_79_" class="st6" points="266.7,268.4 275.2,268.4 275.2,269.7 268.4,269.7 268.4,273.6 274.7,273.6 274.7,275 
		268.4,275 268.4,279.3 275.2,279.3 275.2,280.6 266.7,280.6 	"/>
	<path id="XMLID_80_" class="st6" d="M286.4,272.1c-0.3-1.7-1.7-2.6-3.4-2.6c-2.9,0-4.1,2.4-4.1,5c0,2.8,1.2,5.1,4.2,5.1
		c2.1,0,3.4-1.5,3.5-3.5h1.6c-0.3,3.1-2.2,4.9-5.3,4.9c-3.8,0-5.6-2.8-5.6-6.4c0-3.6,2-6.5,5.8-6.5c2.6,0,4.7,1.4,5,4H286.4z"/>
	<polygon id="XMLID_81_" class="st6" points="290.8,268.4 292.4,268.4 292.4,273.6 298.8,273.6 298.8,268.4 300.5,268.4 
		300.5,280.6 298.8,280.6 298.8,275 292.4,275 292.4,280.6 290.8,280.6 	"/>
	<polygon id="XMLID_82_" class="st6" points="303.7,268.4 305.5,268.4 311.9,278.3 311.9,278.3 311.9,268.4 313.5,268.4 
		313.5,280.6 311.7,280.6 305.3,270.8 305.3,270.8 305.3,280.6 303.7,280.6 	"/>
	<path id="XMLID_83_" class="st6" d="M321.9,279.5c3,0,4.2-2.6,4.2-5c0-2.5-1.2-5.1-4.2-5.1c-3,0-4.2,2.6-4.2,5.1
		C317.6,277,318.9,279.5,321.9,279.5z M321.9,268.1c3.9,0,5.9,3.1,5.9,6.4c0,3.3-2,6.4-5.9,6.4c-3.9,0-5.8-3.1-5.8-6.4
		C316,271.2,318,268.1,321.9,268.1z"/>
	<polygon id="XMLID_86_" class="st6" points="330.2,268.4 331.8,268.4 331.8,279.3 338.3,279.3 338.3,280.6 330.2,280.6 	"/>
	<path id="XMLID_87_" class="st6" d="M345.2,279.5c3,0,4.2-2.6,4.2-5c0-2.5-1.2-5.1-4.2-5.1c-3,0-4.2,2.6-4.2,5.1
		C341,277,342.2,279.5,345.2,279.5z M345.2,268.1c3.9,0,5.9,3.1,5.9,6.4c0,3.3-2,6.4-5.9,6.4c-3.9,0-5.8-3.1-5.8-6.4
		C339.3,271.2,341.3,268.1,345.2,268.1z"/>
	<path id="XMLID_90_" class="st6" d="M362.8,279.1c-0.9,1.3-2.5,1.8-3.9,1.8c-3.6,0-5.8-3-5.8-6.2c0-3.6,1.9-6.7,5.8-6.7
		c2.7,0,4.8,1.2,5.3,4.1h-1.6c-0.3-1.9-1.8-2.7-3.6-2.7c-3,0-4.2,2.6-4.2,5.2c0,2.6,1.5,4.9,4.2,4.9c2.5,0,4-1.8,3.9-4h-3.9v-1.4
		h5.4v6.5h-1L362.8,279.1z"/>
	<rect id="XMLID_91_" x="367.3" y="268.4" class="st6" width="1.6" height="12.3"/>
	<polygon id="XMLID_92_" class="st6" points="372.3,268.4 380.7,268.4 380.7,269.7 373.9,269.7 373.9,273.6 380.2,273.6 380.2,275 
		373.9,275 373.9,279.3 380.8,279.3 380.8,280.6 372.3,280.6 	"/>
	<path id="XMLID_93_" class="st6" d="M390.4,272c-0.2-1.8-1.4-2.5-3-2.5c-1.4,0-2.7,0.5-2.7,2.1c0,1.5,1.9,1.7,3.9,2.2
		c1.9,0.4,3.9,1.1,3.9,3.5c0,2.6-2.5,3.7-4.8,3.7c-2.7,0-5-1.3-5-4.3h1.5c0,2.1,1.7,3,3.6,3c1.5,0,3.1-0.5,3.1-2.2
		c0-1.7-1.9-2-3.9-2.4c-2-0.4-3.9-1-3.9-3.2c0-2.5,2.2-3.6,4.4-3.6c2.5,0,4.4,1.2,4.5,3.9H390.4z"/>
	<polygon id="XMLID_94_" class="st6" points="400.1,268.4 401.8,268.4 401.8,279.3 408.2,279.3 408.2,280.6 400.1,280.6 	"/>
	<polygon id="XMLID_95_" class="st6" points="411.6,269.7 407.5,269.7 407.5,268.4 417.3,268.4 417.3,269.7 413.2,269.7 
		413.2,280.6 411.6,280.6 	"/>
	<path id="XMLID_96_" class="st6" d="M420.9,279.3h2.7c1.1,0,4.1-0.3,4.1-4.8c0-2.9-1.1-4.7-4.1-4.7h-2.7V279.3z M419.2,268.4h4.2
		c3.8,0,5.9,1.9,5.9,5.8c0,4.1-1.8,6.4-5.9,6.4h-4.2V268.4z"/>
	<rect id="XMLID_99_" x="430.6" y="278.7" class="st6" width="1.9" height="1.9"/>
	<path id="XMLID_100_" class="st6" d="M428.3,224.7h0.6c0.5,0,0.9,0,0.9-0.6c0-0.5-0.4-0.6-0.8-0.6h-0.7V224.7z M427.8,223.1h1.4
		c0.9,0,1.3,0.3,1.3,1c0,0.7-0.4,0.9-0.9,1l1,1.6h-0.6l-1-1.6h-0.6v1.6h-0.6V223.1z M429,227.6c1.4,0,2.5-1.1,2.5-2.7
		c0-1.5-1.1-2.6-2.5-2.6c-1.4,0-2.5,1.1-2.5,2.6C426.4,226.5,427.5,227.6,429,227.6z M429,221.9c1.7,0,3.1,1.3,3.1,3.1
		c0,1.8-1.4,3.1-3.1,3.1c-1.7,0-3.1-1.3-3.1-3.1C425.9,223.2,427.3,221.9,429,221.9z"/>
</g>
</svg>
